<svg xmlns="http://www.w3.org/2000/svg" xmlns:xlink="http://www.w3.org/1999/xlink" >
<symbol id="logo">
<path fill="currentColor" d="m122.50382,29.13206l12.99139,18.31062l-8.36795,0l-9.12784,-13.61395l-3.82692,3.88185l0,9.76872l-6.66507,0l0,-30.32239l6.66507,0l0,12.57024l11.85613,-12.57024l8.32218,0l-11.84697,11.97515zm14.98724,9.34757l12.81744,0l0,-5.18191l-12.81744,0l0,5.18191zm45.45612,-12.34136a19.02474,19.02474 0 0 1 1.01624,6.30801a18.38386,18.38386 0 0 1 -1.01624,6.17983a14.81329,14.81329 0 0 1 -2.9297,4.98964a13.50408,13.50408 0 0 1 -4.67836,3.33253a16.78168,16.78168 0 0 1 -12.55193,0a13.37591,13.37591 0 0 1 -4.68752,-3.33253a14.6485,14.6485 0 0 1 -2.93885,-4.98964a18.38386,18.38386 0 0 1 -1.01624,-6.17983a19.02474,19.02474 0 0 1 1.01624,-6.30801a15.06964,15.06964 0 0 1 2.93885,-5.07204a13.30267,13.30267 0 0 1 4.68752,-3.39662a16.5528,16.5528 0 0 1 12.55193,0a13.43084,13.43084 0 0 1 4.67836,3.39662a15.19782,15.19782 0 0 1 2.9297,5.07204zm-5.64883,6.30801a16.83662,16.83662 0 0 0 -0.44861,-3.86354a10.11662,10.11662 0 0 0 -1.42823,-3.33253a7.16861,7.16861 0 0 0 -2.54518,-2.3346a8.75248,8.75248 0 0 0 -7.64468,0a7.16861,7.16861 0 0 0 -2.54518,2.3346a10.11662,10.11662 0 0 0 -1.42823,3.33253a16.83662,16.83662 0 0 0 -0.44861,3.86354a15.64643,15.64643 0 0 0 0.44861,3.71706a9.93351,9.93351 0 0 0 1.42823,3.25014a7.37918,7.37918 0 0 0 2.54518,2.31629a8.83488,8.83488 0 0 0 7.64468,0a7.37918,7.37918 0 0 0 2.54518,-2.31629a9.93351,9.93351 0 0 0 1.42823,-3.25014a15.64643,15.64643 0 0 0 0.44861,-3.71706zm29.5625,-5.02627a5.89602,5.89602 0 0 0 -2.44447,-1.83106a10.25395,10.25395 0 0 0 -3.9734,-0.65918a8.64261,8.64261 0 0 0 -3.73537,0.91553a6.93973,6.93973 0 0 0 -2.97548,2.74659l-0.1648,0l0,-3.06703l-5.6946,0l0,21.97275l6.03335,0l0,-11.52654c0,-2.2339 0.36621,-3.84523 1.09864,-4.81569a4.18398,4.18398 0 0 1 3.57057,-1.46485a3.25929,3.25929 0 0 1 3.0121,1.33668a7.67215,7.67215 0 0 1 0.85144,4.0558l0,12.39629l6.03335,0l0,-13.50408a17.91694,17.91694 0 0 0 -0.35706,-3.71706a7.16861,7.16861 0 0 0 -1.25428,-2.83815zm26.5504,5.67629a15.39923,15.39923 0 0 1 0.42114,4.87978l-15.83869,0a6.07913,6.07913 0 0 0 1.48316,4.24806a6.17068,6.17068 0 0 0 7.04959,0.40283a3.80861,3.80861 0 0 0 1.62049,-1.93177l5.31008,0a10.07084,10.07084 0 0 1 -3.90932,5.64883a11.48992,11.48992 0 0 1 -6.40872,1.70289a12.45122,12.45122 0 0 1 -4.67836,-0.83313a9.81449,9.81449 0 0 1 -3.45155,-2.39869a10.62016,10.62016 0 0 1 -2.22474,-3.66212a13.44915,13.44915 0 0 1 -0.78736,-4.67836a12.81744,12.81744 0 0 1 0.80567,-4.57766a10.66594,10.66594 0 0 1 5.84109,-6.11575a11.36174,11.36174 0 0 1 4.57766,-0.91553a10.39128,10.39128 0 0 1 4.87978,1.08033a9.79618,9.79618 0 0 1 3.42409,2.91139a12.00261,12.00261 0 0 1 1.92262,4.22975l-0.03662,0.00916zm-5.60305,1.06202a7.00381,7.00381 0 0 0 -1.51063,-3.48817a4.26637,4.26637 0 0 0 -3.29591,-1.19019a5.20022,5.20022 0 0 0 -2.39869,0.49439a4.57766,4.57766 0 0 0 -1.52894,1.2085a4.4037,4.4037 0 0 0 -0.80567,1.52894a6.83902,6.83902 0 0 0 -0.27466,1.44654l9.81449,0zm40.96086,-0.53101a12.81744,12.81744 0 0 0 -3.31422,-1.44654c-1.22681,-0.35706 -2.4994,-0.65918 -3.79945,-0.91553s-2.53602,-0.52185 -3.78114,-0.80567a15.62812,15.62812 0 0 1 -3.31422,-1.1261a6.40872,6.40872 0 0 1 -2.3346,-1.83106a4.67836,4.67836 0 0 1 -0.91553,-2.97548a5.65798,5.65798 0 0 1 0.85144,-3.14943a6.30801,6.30801 0 0 1 2.05994,-1.99586a8.49613,8.49613 0 0 1 2.74659,-1.03455a13.59564,13.59564 0 0 1 2.74659,-0.30213a14.16327,14.16327 0 0 1 3.84523,0.49439a8.77994,8.77994 0 0 1 3.03956,1.46485a7.05874,7.05874 0 0 1 2.04163,2.417a8.23978,8.23978 0 0 1 0.83313,3.39662l1.83106,0a10.40043,10.40043 0 0 0 -1.06202,-4.28469a8.23978,8.23978 0 0 0 -2.51771,-2.91139a10.61101,10.61101 0 0 0 -3.58888,-1.65711a17.62397,17.62397 0 0 0 -4.44033,-0.53101a14.914,14.914 0 0 0 -3.60719,0.44861a10.41874,10.41874 0 0 0 -3.29591,1.38245a7.53482,7.53482 0 0 0 -2.38038,2.50856a7.20523,7.20523 0 0 0 -0.91553,3.7079a6.40872,6.40872 0 0 0 0.91553,3.55226a7.2327,7.2327 0 0 0 2.3346,2.25221a13.45831,13.45831 0 0 0 3.31422,1.38245c1.24512,0.33875 2.50856,0.63172 3.78114,0.91553s2.57264,0.53101 3.79945,0.82398a15.47248,15.47248 0 0 1 3.31422,1.19019a6.65591,6.65591 0 0 1 2.34376,1.97755a5.12697,5.12697 0 0 1 0.91553,3.12196a5.93264,5.93264 0 0 1 -0.86975,3.31422a6.95804,6.95804 0 0 1 -2.16981,2.12403a9.15531,9.15531 0 0 1 -2.83815,1.14441a13.49493,13.49493 0 0 1 -2.91139,0.33875a18.7043,18.7043 0 0 1 -4.29384,-0.48523a9.87858,9.87858 0 0 1 -3.54311,-1.59302a7.71793,7.71793 0 0 1 -2.34376,-2.85646a8.47782,8.47782 0 0 1 -0.72327,-4.2206l-1.83106,0a10.79411,10.79411 0 0 0 0.91553,4.96218a8.98136,8.98136 0 0 0 2.74659,3.34169a11.32512,11.32512 0 0 0 4.07411,1.83106a21.3685,21.3685 0 0 0 5.01711,0.56763a15.99433,15.99433 0 0 0 3.66212,-0.43945a10.80327,10.80327 0 0 0 3.4424,-1.46485a8.72501,8.72501 0 0 0 2.57264,-2.63673a7.32425,7.32425 0 0 0 1.01624,-3.99172a6.97635,6.97635 0 0 0 -0.91553,-3.66212a7.13199,7.13199 0 0 0 -2.417,-2.35291l-0.03662,0.00916zm24.97569,-1.91346a13.50408,13.50408 0 0 1 0.62256,4.1382c0,0.14648 0,0.30213 0,0.49439s0,0.32959 0,0.43945l-17.66975,0l0,0.25635a12.99139,12.99139 0 0 0 0.5127,3.66212a9.28349,9.28349 0 0 0 1.50147,3.03956a7.09537,7.09537 0 0 0 2.50856,2.07826a7.65384,7.65384 0 0 0 3.51564,0.76905a7.51651,7.51651 0 0 0 5.20022,-1.7212a9.02714,9.02714 0 0 0 2.63673,-4.77907l1.61133,0a9.69547,9.69547 0 0 1 -3.12196,5.8594a9.42997,9.42997 0 0 1 -6.34463,2.04163a9.69547,9.69547 0 0 1 -4.22975,-0.86975a8.55106,8.55106 0 0 1 -3.0121,-2.38038a10.07084,10.07084 0 0 1 -1.83106,-3.57057a15.66474,15.66474 0 0 1 -0.5951,-4.43117a15.56403,15.56403 0 0 1 0.61341,-4.4037a10.98637,10.98637 0 0 1 1.83106,-3.66212a9.10038,9.10038 0 0 1 3.07618,-2.55433a9.43913,9.43913 0 0 1 4.35793,-0.91553a9.23771,9.23771 0 0 1 4.0558,0.85144a8.45035,8.45035 0 0 1 2.99379,2.27967a10.15324,10.15324 0 0 1 1.8036,3.36915l-0.03662,0.00916zm-1.03455,3.66212a13.44915,13.44915 0 0 0 -0.5951,-3.37831a8.45951,8.45951 0 0 0 -1.50147,-2.80153a7.5806,7.5806 0 0 0 -2.42616,-1.93177a7.17776,7.17776 0 0 0 -3.25929,-0.72327a7.61722,7.61722 0 0 0 -3.4424,0.74158a7.87357,7.87357 0 0 0 -2.4994,1.96839a8.73417,8.73417 0 0 0 -1.57471,2.81984a13.33013,13.33013 0 0 0 -0.67749,3.31422l15.97602,-0.00916zm22.38474,-4.87978a7.93765,7.93765 0 0 0 -0.70496,-1.93177a5.86855,5.86855 0 0 0 -1.33668,-1.7212a6.40872,6.40872 0 0 0 -2.1515,-1.25428a9.9152,9.9152 0 0 0 -3.25014,-0.46692a9.31095,9.31095 0 0 0 -2.50856,0.33875a8.08414,8.08414 0 0 0 -2.27052,1.04371a7.93765,7.93765 0 0 0 -1.83106,1.62965a6.91226,6.91226 0 0 0 -1.21766,2.18812l-0.05493,0l0,-4.66921l-1.61133,0l0,21.82626l1.61133,0l0,-11.81951a12.07586,12.07586 0 0 1 0.53101,-3.66212a8.23978,8.23978 0 0 1 1.5564,-2.88392a7.16861,7.16861 0 0 1 2.49024,-1.89515a7.71793,7.71793 0 0 1 3.30507,-0.67749a6.46365,6.46365 0 0 1 3.46986,0.80567a5.49319,5.49319 0 0 1 1.83106,1.93177a6.13406,6.13406 0 0 1 0.74158,2.36207c0.0824,0.82398 0.12817,1.50147 0.12817,2.04163l0,13.79705l1.61133,0l0,-13.50408c0,-0.44861 0,-0.97962 0,-1.59302a12.90899,12.90899 0 0 0 -0.30213,-1.88599l-0.03662,0zm23.56577,-13.33929l0,30.32239l-1.61133,0l0,-4.66921l-0.09155,0a9.90605,9.90605 0 0 1 -3.39662,3.89101a10.18071,10.18071 0 0 1 -9.2194,0.35706a8.36795,8.36795 0 0 1 -2.9297,-2.50856a10.83989,10.83989 0 0 1 -1.69373,-3.66212a16.27814,16.27814 0 0 1 -0.55847,-4.31215a16.62604,16.62604 0 0 1 0.5951,-4.52272a10.40959,10.40959 0 0 1 1.83106,-3.66212a8.79825,8.79825 0 0 1 3.03956,-2.42616a9.79618,9.79618 0 0 1 4.29384,-0.91553a9.22855,9.22855 0 0 1 2.59095,0.36621a9.0546,9.0546 0 0 1 2.32545,1.08948a7.45242,7.45242 0 0 1 3.12196,3.99172l0.09155,0l0,-13.33929l1.61133,0zm-1.65711,19.41841a14.37384,14.37384 0 0 0 -0.48523,-3.71706a10.4279,10.4279 0 0 0 -1.47401,-3.23182a7.32425,7.32425 0 0 0 -2.52687,-2.20643a7.39749,7.39749 0 0 0 -3.66212,-0.85144a7.61722,7.61722 0 0 0 -3.66212,0.83313a7.38834,7.38834 0 0 0 -2.53602,2.19727a9.36588,9.36588 0 0 0 -1.44654,3.23182a16.06757,16.06757 0 0 0 -0.38452,3.74452a14.04425,14.04425 0 0 0 0.48523,3.71706a10.18986,10.18986 0 0 0 1.48316,3.20436a7.50735,7.50735 0 0 0 2.48109,2.2339a7.63553,7.63553 0 0 0 3.66212,0.82398a7.1503,7.1503 0 0 0 3.58888,-0.85144a7.69046,7.69046 0 0 0 2.50856,-2.25221a9.92436,9.92436 0 0 0 1.49232,-3.20436a14.18158,14.18158 0 0 0 0.47608,-3.67128z"/>
</symbol>
<use xlink:href="#logo"/>
</svg>